<mxfile host="app.diagrams.net" modified="2023-11-16T20:07:41.827Z" agent="Mozilla/5.0 (Windows NT 10.0; Win64; x64) AppleWebKit/537.36 (KHTML, like Gecko) Chrome/116.0.0.0 Safari/537.36" version="22.1.2" etag="8gQ6_5w2jylC6xCryrYn" type="device">
  <diagram id="S0sNnc3N4PXC4VCOwg0j" name="Trang-1">
    <mxGraphModel dx="1006" dy="559" grid="1" gridSize="10" guides="1" tooltips="1" connect="1" arrows="1" fold="1" page="1" pageScale="1" pageWidth="827" pageHeight="1169" math="0" shadow="0">
      <root>
        <mxCell id="0" />
        <mxCell id="1" parent="0" />
        <mxCell id="e_S7nnzFC_1SCAcp6Oju-1" value="" style="edgeStyle=orthogonalEdgeStyle;rounded=0;orthogonalLoop=1;jettySize=auto;html=1;" edge="1" parent="1" target="e_S7nnzFC_1SCAcp6Oju-3">
          <mxGeometry relative="1" as="geometry">
            <mxPoint x="310" y="100" as="sourcePoint" />
          </mxGeometry>
        </mxCell>
        <mxCell id="e_S7nnzFC_1SCAcp6Oju-2" value="" style="edgeStyle=orthogonalEdgeStyle;rounded=0;orthogonalLoop=1;jettySize=auto;html=1;" edge="1" parent="1" source="e_S7nnzFC_1SCAcp6Oju-3" target="e_S7nnzFC_1SCAcp6Oju-5">
          <mxGeometry relative="1" as="geometry" />
        </mxCell>
        <mxCell id="e_S7nnzFC_1SCAcp6Oju-3" value="n" style="rounded=0;whiteSpace=wrap;html=1;" vertex="1" parent="1">
          <mxGeometry x="250" y="130" width="120" height="60" as="geometry" />
        </mxCell>
        <mxCell id="e_S7nnzFC_1SCAcp6Oju-4" value="" style="edgeStyle=orthogonalEdgeStyle;rounded=0;orthogonalLoop=1;jettySize=auto;html=1;" edge="1" parent="1" source="e_S7nnzFC_1SCAcp6Oju-5" target="e_S7nnzFC_1SCAcp6Oju-7">
          <mxGeometry relative="1" as="geometry" />
        </mxCell>
        <mxCell id="e_S7nnzFC_1SCAcp6Oju-5" value="Nhập n" style="shape=parallelogram;perimeter=parallelogramPerimeter;whiteSpace=wrap;html=1;fixedSize=1;rounded=0;" vertex="1" parent="1">
          <mxGeometry x="250" y="220" width="120" height="60" as="geometry" />
        </mxCell>
        <mxCell id="e_S7nnzFC_1SCAcp6Oju-6" value="" style="edgeStyle=orthogonalEdgeStyle;rounded=0;orthogonalLoop=1;jettySize=auto;html=1;" edge="1" parent="1" source="e_S7nnzFC_1SCAcp6Oju-7" target="e_S7nnzFC_1SCAcp6Oju-9">
          <mxGeometry relative="1" as="geometry" />
        </mxCell>
        <mxCell id="e_S7nnzFC_1SCAcp6Oju-7" value="numbers[n]" style="whiteSpace=wrap;html=1;rounded=0;" vertex="1" parent="1">
          <mxGeometry x="250" y="330" width="120" height="60" as="geometry" />
        </mxCell>
        <mxCell id="e_S7nnzFC_1SCAcp6Oju-8" value="" style="edgeStyle=orthogonalEdgeStyle;rounded=0;orthogonalLoop=1;jettySize=auto;html=1;" edge="1" parent="1" source="e_S7nnzFC_1SCAcp6Oju-9" target="e_S7nnzFC_1SCAcp6Oju-12">
          <mxGeometry relative="1" as="geometry" />
        </mxCell>
        <mxCell id="e_S7nnzFC_1SCAcp6Oju-9" value="i = 0" style="whiteSpace=wrap;html=1;rounded=0;" vertex="1" parent="1">
          <mxGeometry x="250" y="450" width="120" height="60" as="geometry" />
        </mxCell>
        <mxCell id="e_S7nnzFC_1SCAcp6Oju-10" value="true" style="edgeStyle=orthogonalEdgeStyle;rounded=0;orthogonalLoop=1;jettySize=auto;html=1;" edge="1" parent="1" source="e_S7nnzFC_1SCAcp6Oju-12" target="e_S7nnzFC_1SCAcp6Oju-14">
          <mxGeometry relative="1" as="geometry" />
        </mxCell>
        <mxCell id="e_S7nnzFC_1SCAcp6Oju-11" value="false" style="edgeStyle=orthogonalEdgeStyle;rounded=0;orthogonalLoop=1;jettySize=auto;html=1;" edge="1" parent="1" source="e_S7nnzFC_1SCAcp6Oju-12">
          <mxGeometry relative="1" as="geometry">
            <mxPoint x="310" y="730" as="targetPoint" />
          </mxGeometry>
        </mxCell>
        <mxCell id="e_S7nnzFC_1SCAcp6Oju-12" value="i &amp;lt; n" style="rhombus;whiteSpace=wrap;html=1;rounded=0;" vertex="1" parent="1">
          <mxGeometry x="270" y="570" width="80" height="80" as="geometry" />
        </mxCell>
        <mxCell id="e_S7nnzFC_1SCAcp6Oju-13" value="" style="edgeStyle=orthogonalEdgeStyle;rounded=0;orthogonalLoop=1;jettySize=auto;html=1;" edge="1" parent="1" source="e_S7nnzFC_1SCAcp6Oju-14" target="e_S7nnzFC_1SCAcp6Oju-16">
          <mxGeometry relative="1" as="geometry" />
        </mxCell>
        <mxCell id="e_S7nnzFC_1SCAcp6Oju-14" value="Nhập numbers[i]" style="shape=parallelogram;perimeter=parallelogramPerimeter;whiteSpace=wrap;html=1;fixedSize=1;rounded=0;" vertex="1" parent="1">
          <mxGeometry x="390" y="580" width="120" height="60" as="geometry" />
        </mxCell>
        <mxCell id="e_S7nnzFC_1SCAcp6Oju-15" style="edgeStyle=orthogonalEdgeStyle;rounded=0;orthogonalLoop=1;jettySize=auto;html=1;movable=1;resizable=1;rotatable=1;deletable=1;editable=1;locked=0;connectable=1;entryX=0.5;entryY=0;entryDx=0;entryDy=0;" edge="1" parent="1" source="e_S7nnzFC_1SCAcp6Oju-16" target="e_S7nnzFC_1SCAcp6Oju-12">
          <mxGeometry relative="1" as="geometry">
            <mxPoint x="630" y="530" as="targetPoint" />
            <Array as="points">
              <mxPoint x="630" y="530" />
              <mxPoint x="310" y="530" />
            </Array>
          </mxGeometry>
        </mxCell>
        <mxCell id="e_S7nnzFC_1SCAcp6Oju-16" value="i + 1" style="whiteSpace=wrap;html=1;rounded=0;" vertex="1" parent="1">
          <mxGeometry x="570" y="580" width="120" height="60" as="geometry" />
        </mxCell>
        <mxCell id="e_S7nnzFC_1SCAcp6Oju-17" value="" style="edgeStyle=orthogonalEdgeStyle;rounded=0;orthogonalLoop=1;jettySize=auto;html=1;" edge="1" parent="1" source="e_S7nnzFC_1SCAcp6Oju-18" target="e_S7nnzFC_1SCAcp6Oju-21">
          <mxGeometry relative="1" as="geometry" />
        </mxCell>
        <mxCell id="e_S7nnzFC_1SCAcp6Oju-18" value="i =1,key=numbers[i]&lt;br&gt;j = i-1" style="rounded=0;whiteSpace=wrap;html=1;" vertex="1" parent="1">
          <mxGeometry x="250" y="730" width="120" height="60" as="geometry" />
        </mxCell>
        <mxCell id="e_S7nnzFC_1SCAcp6Oju-19" value="true" style="edgeStyle=orthogonalEdgeStyle;rounded=0;orthogonalLoop=1;jettySize=auto;html=1;" edge="1" parent="1" source="e_S7nnzFC_1SCAcp6Oju-21" target="e_S7nnzFC_1SCAcp6Oju-24">
          <mxGeometry relative="1" as="geometry" />
        </mxCell>
        <mxCell id="e_S7nnzFC_1SCAcp6Oju-20" value="false" style="edgeStyle=orthogonalEdgeStyle;rounded=0;orthogonalLoop=1;jettySize=auto;html=1;" edge="1" parent="1" source="e_S7nnzFC_1SCAcp6Oju-21">
          <mxGeometry relative="1" as="geometry">
            <mxPoint x="310" y="1010" as="targetPoint" />
          </mxGeometry>
        </mxCell>
        <mxCell id="e_S7nnzFC_1SCAcp6Oju-21" value="i &amp;lt; n" style="rhombus;whiteSpace=wrap;html=1;rounded=0;" vertex="1" parent="1">
          <mxGeometry x="270" y="860" width="80" height="80" as="geometry" />
        </mxCell>
        <mxCell id="e_S7nnzFC_1SCAcp6Oju-22" value="true" style="edgeStyle=orthogonalEdgeStyle;rounded=0;orthogonalLoop=1;jettySize=auto;html=1;" edge="1" parent="1" source="e_S7nnzFC_1SCAcp6Oju-24" target="e_S7nnzFC_1SCAcp6Oju-26">
          <mxGeometry relative="1" as="geometry" />
        </mxCell>
        <mxCell id="e_S7nnzFC_1SCAcp6Oju-23" value="false" style="edgeStyle=orthogonalEdgeStyle;rounded=0;orthogonalLoop=1;jettySize=auto;html=1;" edge="1" parent="1" source="e_S7nnzFC_1SCAcp6Oju-24" target="e_S7nnzFC_1SCAcp6Oju-30">
          <mxGeometry relative="1" as="geometry" />
        </mxCell>
        <mxCell id="e_S7nnzFC_1SCAcp6Oju-24" value="j&amp;gt;0&lt;br&gt;key&amp;gt;numbers[j]" style="rhombus;whiteSpace=wrap;html=1;rounded=0;" vertex="1" parent="1">
          <mxGeometry x="430" y="850" width="120" height="100" as="geometry" />
        </mxCell>
        <mxCell id="e_S7nnzFC_1SCAcp6Oju-25" value="" style="edgeStyle=orthogonalEdgeStyle;rounded=0;orthogonalLoop=1;jettySize=auto;html=1;" edge="1" parent="1" source="e_S7nnzFC_1SCAcp6Oju-26" target="e_S7nnzFC_1SCAcp6Oju-28">
          <mxGeometry relative="1" as="geometry" />
        </mxCell>
        <mxCell id="e_S7nnzFC_1SCAcp6Oju-26" value="numbers [j+1] = numbers[j]" style="whiteSpace=wrap;html=1;rounded=0;" vertex="1" parent="1">
          <mxGeometry x="600" y="870" width="120" height="60" as="geometry" />
        </mxCell>
        <mxCell id="e_S7nnzFC_1SCAcp6Oju-27" style="edgeStyle=orthogonalEdgeStyle;rounded=0;orthogonalLoop=1;jettySize=auto;html=1;entryX=0.5;entryY=0;entryDx=0;entryDy=0;" edge="1" parent="1" source="e_S7nnzFC_1SCAcp6Oju-28" target="e_S7nnzFC_1SCAcp6Oju-24">
          <mxGeometry relative="1" as="geometry">
            <mxPoint x="810" y="830" as="targetPoint" />
            <Array as="points">
              <mxPoint x="810" y="830" />
              <mxPoint x="490" y="830" />
            </Array>
          </mxGeometry>
        </mxCell>
        <mxCell id="e_S7nnzFC_1SCAcp6Oju-28" value="j -= 1" style="whiteSpace=wrap;html=1;rounded=0;" vertex="1" parent="1">
          <mxGeometry x="750" y="870" width="120" height="60" as="geometry" />
        </mxCell>
        <mxCell id="e_S7nnzFC_1SCAcp6Oju-29" value="" style="edgeStyle=orthogonalEdgeStyle;rounded=0;orthogonalLoop=1;jettySize=auto;html=1;" edge="1" parent="1" source="e_S7nnzFC_1SCAcp6Oju-30" target="e_S7nnzFC_1SCAcp6Oju-32">
          <mxGeometry relative="1" as="geometry" />
        </mxCell>
        <mxCell id="e_S7nnzFC_1SCAcp6Oju-30" value="numbers [j+1] = key" style="whiteSpace=wrap;html=1;rounded=0;" vertex="1" parent="1">
          <mxGeometry x="430" y="1050" width="120" height="60" as="geometry" />
        </mxCell>
        <mxCell id="e_S7nnzFC_1SCAcp6Oju-31" style="edgeStyle=orthogonalEdgeStyle;rounded=0;orthogonalLoop=1;jettySize=auto;html=1;entryX=0.5;entryY=0;entryDx=0;entryDy=0;" edge="1" parent="1" source="e_S7nnzFC_1SCAcp6Oju-32" target="e_S7nnzFC_1SCAcp6Oju-21">
          <mxGeometry relative="1" as="geometry">
            <mxPoint x="930" y="800" as="targetPoint" />
            <Array as="points">
              <mxPoint x="970" y="1180" />
              <mxPoint x="970" y="800" />
              <mxPoint x="310" y="800" />
            </Array>
          </mxGeometry>
        </mxCell>
        <mxCell id="e_S7nnzFC_1SCAcp6Oju-32" value="i +1&amp;nbsp;" style="whiteSpace=wrap;html=1;rounded=0;" vertex="1" parent="1">
          <mxGeometry x="430" y="1150" width="120" height="60" as="geometry" />
        </mxCell>
        <mxCell id="e_S7nnzFC_1SCAcp6Oju-33" style="edgeStyle=orthogonalEdgeStyle;rounded=0;orthogonalLoop=1;jettySize=auto;html=1;entryX=0.5;entryY=0;entryDx=0;entryDy=0;" edge="1" parent="1" source="e_S7nnzFC_1SCAcp6Oju-34" target="e_S7nnzFC_1SCAcp6Oju-37">
          <mxGeometry relative="1" as="geometry" />
        </mxCell>
        <mxCell id="e_S7nnzFC_1SCAcp6Oju-34" value="i = 0" style="rounded=0;whiteSpace=wrap;html=1;" vertex="1" parent="1">
          <mxGeometry x="250" y="1010" width="120" height="60" as="geometry" />
        </mxCell>
        <mxCell id="e_S7nnzFC_1SCAcp6Oju-35" value="True" style="edgeStyle=orthogonalEdgeStyle;rounded=0;orthogonalLoop=1;jettySize=auto;html=1;" edge="1" parent="1" source="e_S7nnzFC_1SCAcp6Oju-37">
          <mxGeometry relative="1" as="geometry">
            <mxPoint x="310" y="1240" as="targetPoint" />
          </mxGeometry>
        </mxCell>
        <mxCell id="e_S7nnzFC_1SCAcp6Oju-36" value="False" style="edgeStyle=orthogonalEdgeStyle;rounded=0;orthogonalLoop=1;jettySize=auto;html=1;" edge="1" parent="1" source="e_S7nnzFC_1SCAcp6Oju-37" target="e_S7nnzFC_1SCAcp6Oju-42">
          <mxGeometry relative="1" as="geometry" />
        </mxCell>
        <mxCell id="e_S7nnzFC_1SCAcp6Oju-37" value="i&amp;nbsp; &amp;lt; n" style="rhombus;whiteSpace=wrap;html=1;" vertex="1" parent="1">
          <mxGeometry x="270" y="1110" width="80" height="80" as="geometry" />
        </mxCell>
        <mxCell id="e_S7nnzFC_1SCAcp6Oju-38" value="" style="edgeStyle=orthogonalEdgeStyle;rounded=0;orthogonalLoop=1;jettySize=auto;html=1;" edge="1" parent="1" source="e_S7nnzFC_1SCAcp6Oju-39" target="e_S7nnzFC_1SCAcp6Oju-41">
          <mxGeometry relative="1" as="geometry" />
        </mxCell>
        <mxCell id="e_S7nnzFC_1SCAcp6Oju-39" value="printf numbers[i]" style="shape=parallelogram;perimeter=parallelogramPerimeter;whiteSpace=wrap;html=1;fixedSize=1;" vertex="1" parent="1">
          <mxGeometry x="250" y="1240" width="120" height="60" as="geometry" />
        </mxCell>
        <mxCell id="e_S7nnzFC_1SCAcp6Oju-40" style="edgeStyle=orthogonalEdgeStyle;rounded=0;orthogonalLoop=1;jettySize=auto;html=1;entryX=1;entryY=0.5;entryDx=0;entryDy=0;" edge="1" parent="1" source="e_S7nnzFC_1SCAcp6Oju-41" target="e_S7nnzFC_1SCAcp6Oju-37">
          <mxGeometry relative="1" as="geometry">
            <mxPoint x="390" y="1150" as="targetPoint" />
            <Array as="points">
              <mxPoint x="410" y="1380" />
              <mxPoint x="410" y="1150" />
            </Array>
          </mxGeometry>
        </mxCell>
        <mxCell id="e_S7nnzFC_1SCAcp6Oju-41" value="i + 1" style="whiteSpace=wrap;html=1;" vertex="1" parent="1">
          <mxGeometry x="250" y="1350" width="120" height="60" as="geometry" />
        </mxCell>
        <mxCell id="e_S7nnzFC_1SCAcp6Oju-42" value="End" style="ellipse;whiteSpace=wrap;html=1;" vertex="1" parent="1">
          <mxGeometry x="100" y="1110" width="120" height="80" as="geometry" />
        </mxCell>
        <mxCell id="e_S7nnzFC_1SCAcp6Oju-43" value="Start" style="ellipse;whiteSpace=wrap;html=1;" vertex="1" parent="1">
          <mxGeometry x="250" y="20" width="120" height="80" as="geometry" />
        </mxCell>
      </root>
    </mxGraphModel>
  </diagram>
</mxfile>
